<?xml version="1.0" encoding="UTF-8"?>
<svg width="17px" height="14px" viewBox="0 0 17 14" version="1.1" xmlns="http://www.w3.org/2000/svg" xmlns:xlink="http://www.w3.org/1999/xlink">
    <!-- Generator: Sketch 45.1 (43504) - http://www.bohemiancoding.com/sketch -->
    <title>w</title>
    <desc>Created with Sketch.</desc>
    <defs></defs>
    <g id="Page-1" stroke="none" stroke-width="1" fill="none" fill-rule="evenodd">
        <g id="Favicon---Final-Copy" transform="translate(-1.000000, 0.000000)" fill="#256EFF">
            <path d="M17.2070385,6.90494596 C16.8971425,7.05989395 16.5651111,7.19270652 16.4322985,7.28124823 C16.1002671,7.43619622 15.9010483,7.63541506 15.8567774,8.05598818 C15.7682357,9.09635326 15.4583398,10.1145829 15.0820375,11.0885417 C14.7942769,11.8190108 14.3958392,12.4388028 13.8424536,12.9921884 C12.3372445,14.4309912 10.654952,14.2981787 9.26042013,12.7486988 C8.52995103,11.9296879 8.06510706,11 7.79948193,9.91536407 C7.75521108,9.69400979 7.66666937,9.47265552 7.51172138,8.89713441 C7.22396082,9.38411381 7.11328369,9.58333266 7.00260655,9.76041608 C6.60416886,10.4023435 6.2278666,11.0442709 5.82942891,11.6861982 C5.78515805,11.7526045 5.76302263,11.8190108 5.71875177,11.8632817 C4.58984498,13.0585947 3.43880277,12.7265633 2.70833367,11.619792 C2.17708342,10.8229166 1.95572915,9.91536407 1.95572915,8.9635407 C1.97786457,6.99348767 2.06640628,3.00911077 4.47916785,2.56640223 C5.23177237,2.43358967 5.89583519,2.92056906 5.91797062,3.65103816 C5.91797062,4.005205 5.85156434,4.40364269 5.71875177,4.7356741 C5.2539078,5.86458088 4.89974097,7.03775853 4.74479298,8.25520702 C4.65625127,9.0520824 4.63411584,9.87109321 4.87760554,11.0664063 C5.18750152,10.7343749 5.32031408,10.5794269 5.45312665,10.4687497 C5.58593921,10.3359372 5.69661635,10.2031246 5.78515805,10.0703121 C6.67057514,8.65364471 7.4453151,7.17057109 7.37890881,5.37760149 C7.37890881,5.0677055 7.40104424,4.75780952 7.46745052,4.44791354 C7.53385681,4.13801756 7.60026309,3.80598615 7.66666937,3.49609017 C7.75521108,3.11978791 7.97656535,2.7877565 8.30859676,2.56640223 C9.10547214,2.0572874 10.0130247,2.45572509 10.1015664,3.38541304 C10.1679726,4.005205 10.1237018,4.62499696 10.1015664,5.2226535 C10.0351601,6.90494596 10.2122435,8.56510301 10.7434938,10.1588538 C10.9427126,10.7122394 11.1640669,11.2434897 11.4739629,11.7304691 C11.9166714,12.4388028 12.4479216,12.5052091 13.1341199,12.0625005 C13.244797,11.9739588 13.3554742,11.9075525 13.4440159,11.7968754 C14.484381,10.6236977 14.8385478,9.25130125 14.8606832,7.72395677 C14.0638078,7.43619622 13.4218804,7.2591128 12.8463593,6.97135225 C11.6510463,6.39583114 10.9427126,5.42187234 10.6992229,4.11588213 C10.5442749,3.31900675 10.6992229,2.56640223 11.119796,1.90233941 C11.8059943,0.795568051 13.2226616,0.552078351 14.2630267,1.37108916 C14.7942769,1.79166228 15.1484438,2.32291253 15.3919335,2.94270449 C15.6132877,3.45181932 15.7239649,3.98306957 15.8125066,4.51431982 C15.9010483,5.04557008 15.9674546,5.59895576 16.1224026,6.21874772 C16.4765694,6.17447687 16.7421945,6.06379973 16.9856842,5.97525802 C17.2291739,5.86458088 17.4726636,5.75390375 17.6718825,5.68749747 C17.6940179,5.66536204 17.649747,5.84244546 17.6718825,5.99739345 C17.7382888,6.19661229 17.7825596,6.39583114 17.7604242,6.44010199 C17.7382888,6.57291456 17.5169345,6.72786255 17.2070385,6.90494596 Z M14.3515684,3.78385073 C14.1966204,3.40754846 13.9531307,3.09765248 13.709641,2.7877565 C13.5325576,2.5442668 13.2226616,2.23437082 12.8020885,2.43358967 C12.5807342,2.52213137 12.4921925,2.67707936 12.4479216,2.85416278 C12.4036508,3.00911077 12.4257862,3.18619419 12.4257862,3.34114218 C12.4257862,4.51431982 13.399745,5.68749747 14.7942769,6.13020601 C14.9049541,5.17838264 14.6171935,4.47004897 14.3515684,3.78385073 Z" id="w"></path>
        </g>
    </g>
</svg>