<?xml version="1.0" encoding="UTF-8"?>
<svg width="42px" height="37px" viewBox="0 0 42 37" version="1.1" xmlns="http://www.w3.org/2000/svg" xmlns:xlink="http://www.w3.org/1999/xlink">
    <!-- Generator: Sketch 49.3 (51167) - http://www.bohemiancoding.com/sketch -->
    <title>001-lotus-1</title>
    <desc>Created with Sketch.</desc>
    <defs>
        <polygon id="path-1" points="0.004921875 31.984 0.004921875 0.0533056995 21.0024746 0.0533056995 42.0000274 0.0533056995 42.0000274 31.984"></polygon>
    </defs>
    <g id="Page-1" stroke="none" stroke-width="1" fill="none" fill-rule="evenodd">
        <g id="Wix-Version-Copy-4" transform="translate(-674.000000, -440.000000)">
            <g id="Categories" transform="translate(169.000000, 422.000000)">
                <g id="Wellness" transform="translate(490.000000, 0.000000)">
                    <g id="001-lotus-1" transform="translate(15.000000, 18.000000)">
                        <path d="M22.9798133,12.2247249 C20.5186524,6.24226747 13.7208655,3.12107445 11.0147283,2.08603218 C10.3684598,1.83889094 9.64370772,2.1411164 9.36030378,2.77597839 C8.17368713,5.4344476 5.55897838,12.4810468 8.02022076,18.4634222 C11.1230096,26.0054515 21.1181075,29 21.1181075,29 C21.1181075,29 26.0826021,19.7666722 22.9798133,12.2247249" id="Fill-1" fill="#E31649"></path>
                        <path d="M13.1529597,10 C11.1766705,8.98101434 9.00737854,8.3873987 7,8.04809192 C7.09567236,7.63710383 7.20121041,7.23791044 7.31296634,6.85325115 C9.05902835,7.20975536 10.8845133,7.76897614 12.5700547,8.63813111 C13.0877964,6.94448883 13.937158,5.37663128 14.8870834,4 C15.2531918,4.19503101 15.6256011,4.40375908 16,4.62633642 C14.8419831,6.16908268 13.7653789,7.99680402 13.1529597,10" id="Fill-2" fill="#FF608D"></path>
                        <path d="M19.0201867,12.2247249 C21.4813476,6.24226747 28.2792159,3.12107445 30.9852717,2.08603218 C31.6315402,1.83889094 32.3562923,2.1411164 32.6396962,2.77597839 C33.8263129,5.4344476 36.4410216,12.4810468 33.9797792,18.4634222 C30.8769904,26.0054515 20.8818925,29 20.8818925,29 C20.8818925,29 15.9173979,19.7666722 19.0201867,12.2247249" id="Fill-3" fill="#E31649"></path>
                        <path d="M28.8470403,10 C28.2346211,7.99677861 27.1580169,6.16911019 26,4.62634436 C26.3743989,4.4037642 26.7468082,4.19503348 27.1128337,4 C28.0626762,5.37664874 28.9121207,6.94452618 29.4298624,8.63818994 C31.1154037,7.76902394 32.9408887,7.20979606 34.6869508,6.85328734 C34.7987896,7.2379515 34.9042447,7.63714996 35,8.04806717 C32.9926215,8.38737825 30.8233295,8.98100142 28.8470403,10" id="Fill-4" fill="#FF608D"></path>
                        <path d="M20.5,23 C10.2827415,23 2,26.1340236 2,30 C2,33.8659764 10.2827415,37 20.5,37 C23.5697589,37 26.4645855,36.7169088 29.0128603,36.2161538 C29.5496965,36.1106853 29.7885417,35.4842009 29.4544331,35.0546391 L28.4272209,33.7341609 C28.2063941,33.4502688 28.4336849,33.042089 28.7937303,33.0758037 L35.0443484,33.6616863 C35.7952241,33.7320787 36.5490894,33.5215422 37.1426472,33.0602677 C38.3323484,32.1357968 39,31.0973687 39,29.9999199 C39,26.1340236 30.7172585,23 20.5,23" id="Fill-5" fill="#2C72FB"></path>
                        <path d="M22.4937983,31 C21.9188144,31 21.4449903,30.9831709 21.1039787,30.9653336 L21.1039787,30.9235323 C21.1039787,30.6022284 20.8335213,30.3418814 20.4999195,30.3418814 C20.1663177,30.3418814 19.8958602,30.6022284 19.8958602,30.9235323 L19.8958602,30.9654112 C19.554768,30.9832485 19.0813466,31 18.5062822,31 C17.31548,31 15.6891914,30.9279528 13.9040754,30.6446501 L14.6142075,30.5101724 C14.9415271,30.4481297 15.1547197,30.1423364 15.0903673,29.8271592 C15.0336662,29.5498281 14.7811695,29.3576506 14.4982281,29.3576506 C14.4596488,29.3576506 14.4204253,29.3612181 14.3811211,29.3686632 L11.0118396,30.0066179 C8.71850838,29.3434584 6.4025451,28.2554611 4.56709085,26.4881731 C4.36984536,26.2983223 4.18121778,26.10281 4,25.9027997 C4.42992912,25.587002 4.9246134,25.2853967 5.47817332,25.0000776 C9.60132088,28.2504976 15.46875,28.7183776 18.5061211,28.7183776 C19.7345361,28.7183776 20.4998389,28.6418323 20.4998389,28.6418323 C20.4998389,28.6418323 21.2657055,28.7183 22.4936372,28.7183776 C25.5307668,28.7184551 31.3981153,28.2507303 35.5216656,25 C36.0752255,25.2853191 36.5701514,25.587002 37,25.9027997 C36.8187017,26.1027325 36.6301546,26.2982447 36.4329091,26.4881731 C32.3100032,30.4581341 25.7625644,31.0000776 22.4937983,31" id="Fill-6" fill-opacity="0.428243886" fill="#C9C9C9"></path>
                        <path d="M9.60320434,33 C9.32049051,33 9.06812495,32.7367051 9.01145339,32.3567444 C8.94713439,31.924826 9.16021625,31.5059767 9.48736573,31.4209743 L11.1092672,31 C12.0902327,31.3888859 13.0667707,31.6710939 14,31.8741433 L9.72025044,32.9849121 C9.68104724,32.9951124 9.64184404,33 9.60320434,33" id="Fill-7" fill-opacity="0.428243886" fill="#C9C9C9"></path>
                        <path d="M14.8286014,31 C13.9154303,30.8848448 12.9598813,30.7247966 12,30.5042483 L15.2951513,30.0085568 C15.3335907,30.0027719 15.3719513,30 15.4096817,30 C15.6863979,30 15.9333393,30.1493221 15.9887928,30.3648087 C16.0517294,30.6097017 15.8432273,30.8473034 15.5231094,30.8955107 L14.8286014,31" id="Fill-8" fill-opacity="0.428243886" fill="#C9C9C9"></path>
                        <path d="M20.5,35 C20.2238667,35 20,34.6876047 20,34.3020659 L20,32.0503443 C20.3208,32.0259631 20.5000667,32 20.5000667,32 C20.5000667,32 20.6795333,32.0259631 21,32.0502513 L21,34.3020659 C21,34.6875116 20.7761333,35 20.5,35" id="Fill-9" fill-opacity="0.428243886" fill="#C9C9C9"></path>
                        <g id="Group-17">
                            <mask id="mask-2" fill="white">
                                <use xlink:href="#path-1"></use>
                            </mask>
                            <g id="Clip-11"></g>
                            <path d="M20.3847656,31.984 L20.3847656,31.9392332 C20.3847656,31.595772 20.6602266,31.3174715 21,31.3174715 C21.3397734,31.3174715 21.6152344,31.595772 21.6152344,31.9392332 L21.6152344,31.9839171 C21.2209102,31.9622798 21.000082,31.9391503 21.000082,31.9391503 C21.000082,31.9391503 20.7795,31.9622798 20.3847656,31.984" id="Fill-10" fill="#12976C" mask="url(#mask-2)"></path>
                            <path d="M29.1574336,14.5512124 C29.1574336,8.00232124 24.0248203,2.43705699 21.9021797,0.415419689 C21.3952266,-0.0673989637 20.6048555,-0.0673989637 20.0979023,0.415419689 C17.9752617,2.43697409 12.8426484,8.00232124 12.8426484,14.5512124 C12.8426484,22.8072953 21.000082,29.5001865 21.000082,29.5001865 C21.000082,29.5001865 29.1574336,22.8072953 29.1574336,14.5512124" id="Fill-12" fill="#EDA9BA" mask="url(#mask-2)"></path>
                            <path d="M21,25.2363109 C20.7379102,21.6419482 19.7198203,16.5477306 16.3086328,13.1003523 C15.419332,12.2015337 14.4189609,11.4671088 13.3632187,10.8677306 C14.7217383,5.97537824 18.3873047,2.04460104 20.0979023,0.415419689 C20.3513789,0.174010363 20.6757305,0.0533056995 21.000082,0.0533056995 C21.3244336,0.0533056995 21.6487031,0.174010363 21.9021797,0.415419689 C23.6128594,2.04468394 27.2784258,5.97529534 28.6368633,10.8676477 C27.5811211,11.4670259 26.58075,12.2015337 25.6913672,13.1003523 C22.2801797,16.5477306 21.2620078,21.6419482 21,25.2363109" id="Fill-13" fill="#FEC3D2" mask="url(#mask-2)"></path>
                            <path d="M41.9880234,9.5788601 C41.9673516,8.87519171 41.4084727,8.31038342 40.7121914,8.28949223 C37.7968008,8.20211399 30.2735508,8.4695544 25.6913672,13.1003523 C22.2801797,16.5477306 21.2620078,21.6419482 21,25.2363109 C20.7379102,21.6419482 19.7198203,16.5477306 16.3086328,13.1003523 C11.7265312,8.46963731 4.20328125,8.20211399 1.28780859,8.28949223 C0.591527344,8.31038342 0.0326484375,8.87519171 0.0119765625,9.5788601 C-0.074484375,12.5251813 0.190148437,20.1282487 4.77225,24.7590466 C10.5488906,30.5969741 20.999918,29.5001865 20.999918,29.5001865 C20.999918,29.5001865 31.4509453,30.5969741 37.2275859,24.7590466 C41.8097695,20.1282487 42.0744844,12.5251813 41.9880234,9.5788601" id="Fill-14" fill="#FC1952" mask="url(#mask-2)"></path>
                            <path d="M36.3002227,25.606715 C36.6205547,25.3416788 36.9300586,25.0598135 37.2275859,24.7590466 C37.2295547,24.757057 37.2318516,24.7548187 37.2337383,24.752829 C37.2317695,24.7549016 37.2296367,24.7569741 37.2275859,24.7590466 C36.9300586,25.0598135 36.6205547,25.3416788 36.3002227,25.606715 M37.2361172,24.7513643 C37.2378172,24.7496452 37.2390172,24.7484317 37.2407172,24.7466114 C37.2391172,24.7482294 37.2376172,24.7497463 37.2361172,24.7513643 M37.2428437,24.7443012 C37.2442437,24.7428855 37.2451437,24.7419753 37.2464437,24.7405596 C37.2452437,24.7418742 37.2440437,24.7430877 37.2428437,24.7443012 M37.2493242,24.7374969 C37.2500242,24.736789 37.2509242,24.7358789 37.2515242,24.735171 C37.2508242,24.73598 37.2500242,24.7366879 37.2493242,24.7374969" id="Fill-15" fill="#F3C4CB" mask="url(#mask-2)"></path>
                            <path d="M23.0306016,29.5820104 C21.7799531,29.5819275 20.999918,29.5001865 20.999918,29.5001865 C20.999918,29.5001865 20.220457,29.5820104 18.9693164,29.5820104 C15.63975,29.5820104 8.97110156,29.0024456 4.77225,24.7590466 C0.572742187,20.5149016 -0.0001640625,13.7740933 1.98523347e-23,10.4098653 C1.98523347e-23,10.1033782 0.0047578125,9.82482902 0.0119765625,9.5788601 C0.0326484375,8.87519171 0.591527344,8.31038342 1.28780859,8.28949223 C1.53119531,8.28219689 1.80649219,8.2773886 2.10976172,8.2773886 C3.24089062,8.2773886 4.75789453,8.34437306 6.43231641,8.59904663 C6.42247266,8.59846632 6.41271094,8.59821762 6.40286719,8.59821762 C5.12588672,8.59821762 4.15955859,13.3677098 5.79321094,18.1372021 C7.42678125,22.9066943 11.660168,27.6762694 20.7832734,27.6761865 C20.8551328,27.6761865 20.9275664,27.6758549 21,27.6752746 C21.3316523,27.6862176 21.8529609,27.7081036 22.5144609,27.7081036 C25.8749531,27.7081036 32.8535156,27.1447047 36.9638555,21.7318964 C37.4550586,21.0850984 38.002125,20.8146736 38.4414023,20.8146736 C39.1121719,20.8146736 39.5315977,21.4452228 39.1170117,22.3294508 C38.9922422,22.5333057 38.8624687,22.7346736 38.7269531,22.9331399 C38.6521406,23.0240829 38.5857773,23.1195026 38.5265508,23.2182383 C38.143875,23.7495544 37.7205937,24.2581554 37.2511289,24.735171 C37.2506367,24.7357513 37.2498984,24.7364974 37.2493242,24.7370777 C37.2481758,24.7382383 37.2470273,24.739399 37.2457969,24.7405596 C37.2447305,24.7417202 37.2439922,24.7424663 37.2428437,24.7436269 C37.2418594,24.7446218 37.240875,24.7456166 37.2398906,24.7466114 C37.2384961,24.7481036 37.2375117,24.7490984 37.2361172,24.7505078 C37.2352969,24.7512539 37.2345586,24.752 37.2337383,24.752829 C37.2318516,24.7548187 37.2295547,24.757057 37.2275859,24.7590466 C36.9300586,25.0598135 36.6205547,25.3416788 36.3002227,25.606715 C32.1004687,29.0816166 26.123918,29.5820933 23.0306016,29.5820104" id="Fill-16" fill="#F2668A" mask="url(#mask-2)"></path>
                        </g>
                    </g>
                </g>
            </g>
        </g>
    </g>
</svg>